<svg width="512" height="512" viewBox="0 0 512 512" fill="none" xmlns="http://www.w3.org/2000/svg">
    <path d="M491.52 0H20.48C9.16921 0 0 9.16921 0 20.48V491.52C0 502.831 9.16921 512 20.48 512H491.52C502.831 512 512 502.831 512 491.52V20.48C512 9.16921 502.831 0 491.52 0Z" fill="#FFF6F1"/>
    <path d="M396.367 170.936C379.535 173.445 363.95 177.943 349.463 186.373C314.426 206.765 283.376 232.794 251.843 257.884C197.247 301.297 108.151 305.943 59.5823 259.938C56.6557 257.173 50.3599 251.373 46.2923 254.447C41.5 258.059 43.9565 265.173 45.9702 269.228C55.0987 287.552 68.1066 305.393 81.6651 320.776C108.513 351.248 139.953 380.419 182.024 385.493C194.925 387.052 209.571 386.435 220.9 378.929C231.278 372.071 237.506 359.076 236.822 346.711C236.379 338.563 231.935 330.978 227.707 324.227C222.565 316.009 214.927 305.795 225.894 297.741C241.144 286.531 257.884 277.067 275.873 270.743C287.941 266.501 297.057 271.455 298.936 282.463C301.808 299.364 298.613 314.535 284.062 325.824C265.226 340.442 270.945 355.249 277.176 363.84C300.049 395.387 352.256 379.467 352.256 379.467C411.404 357.128 451.796 324.91 466.132 257.79C475.811 212.443 438.251 164.693 396.367 170.936Z" fill="#EA5949"/>
    <path d="M198.859 212.371C186.04 213.256 181.797 207.283 182.817 196.758C183.811 186.65 187.851 177.562 192.792 168.795C209.747 138.698 270.384 114.79 306.186 153.626C316.63 164.956 316.428 169.655 302.763 175.655C271.203 189.522 241.669 209.014 205.867 211.484C203.035 211.686 200.215 212.196 198.859 212.371Z" fill="#EA5949"/>
    <path d="M243.407 310.041C243.407 310.041 257.838 314.119 270.86 308.871C269.665 312.243 267.397 322.792 256.496 322.792C256.496 322.792 246.092 322.792 243.407 310.041Z" fill="#EA5949"/>
</svg>
